HIERARCHY
ROOT Hips
{
	OFFSET 0.00000 0.00000 0.00000
	CHANNELS 6 Xposition Yposition Zposition Zrotation Yrotation Xrotation 
	JOINT LHipJoint
	{
		OFFSET 0 0 0
		CHANNELS 3 Zrotation Yrotation Xrotation
		JOINT LeftHip
		{
			OFFSET 1.85590 -1.73949 0.84976
			CHANNELS 3 Zrotation Yrotation Xrotation
			JOINT LeftKnee
			{
				OFFSET 2.36836 -6.50702 0.00000
				CHANNELS 3 Zrotation Yrotation Xrotation
				JOINT LeftAnkle
				{
					OFFSET 2.53268 -6.95849 0.00000
					CHANNELS 3 Zrotation Yrotation Xrotation
					JOINT LeftToe
					{
						OFFSET 0.15935 -0.43781 1.94506
						CHANNELS 3 Zrotation Yrotation Xrotation
						End Site
						{
							OFFSET 0.00000 -0.00000 1.00661
						}
					}
				}
			}
		}
	}
	JOINT RHipJoint
	{
		OFFSET 0 0 0
		CHANNELS 3 Zrotation Yrotation Xrotation
		JOINT RightHip
		{
			OFFSET -1.68297 -1.73949 0.84976
			CHANNELS 3 Zrotation Yrotation Xrotation
			JOINT RightKnee
			{
				OFFSET -2.44709 -6.72334 0.00000
				CHANNELS 3 Zrotation Yrotation Xrotation
				JOINT RightAnkle
				{
					OFFSET -2.43843 -6.69953 0.00000
					CHANNELS 3 Zrotation Yrotation Xrotation
					JOINT RightToe
					{
						OFFSET -0.20854 -0.57295 2.02172
						CHANNELS 3 Zrotation Yrotation Xrotation
						End Site
						{
							OFFSET -0.00000 -0.00000 1.05594
						}
					}
				}
			}
		}
	}
	JOINT lowerback
	{
		OFFSET 0 0 0
		CHANNELS 3 Zrotation Yrotation Xrotation
		JOINT Chest
		{
			OFFSET -0.01560 2.23971 -0.03712
			CHANNELS 3 Zrotation Yrotation Xrotation
			JOINT Chest2
			{
				OFFSET 0.05490 2.19225 -0.19086
				CHANNELS 3 Zrotation Yrotation Xrotation
				JOINT lowerneck
				{
					OFFSET 0 0 0
					CHANNELS 3 Zrotation Yrotation Xrotation
					JOINT Neck
					{
						OFFSET -0.12403 1.43168 0.27585
						CHANNELS 3 Zrotation Yrotation Xrotation
						JOINT Head
						{
							OFFSET 0.17855 1.46173 -0.32578
							CHANNELS 3 Zrotation Yrotation Xrotation
							End Site
							{
								OFFSET 0.07217 1.51590 -0.14537
							}
						}
					}
				}
				JOINT LeftCollar
				{
					OFFSET 0 0 0
					CHANNELS 3 Zrotation Yrotation Xrotation
					JOINT LeftShoulder
					{
						OFFSET 3.27650 0.85634 0.05396
CHANNELS 3 Zrotation Xrotation Yrotation
						JOINT LeftElbow
						{
OFFSET 0 -4.967550 0.000000
CHANNELS 3 Zrotation Xrotation Yrotation
							JOINT LeftWrist
							{
OFFSET 0 -3.357510 0.000000
CHANNELS 3 Zrotation Xrotation Yrotation
								JOINT lhand
								{
									OFFSET 0 0 0
CHANNELS 3 Zrotation Xrotation Yrotation
									JOINT LFingers
									{
OFFSET 0 -0.796970 0.000000
CHANNELS 3 Zrotation Xrotation Yrotation
										End Site
										{
OFFSET 0 -0.642540 0.000000
										}
									}
								}
								JOINT LThumb
								{
OFFSET 0 0.000000 0.000000
CHANNELS 3 Zrotation Xrotation Yrotation
									End Site
									{
OFFSET 0 -0.652350 0.652350
									}
								}
							}
						}
					}
				}
				JOINT RightCollar
				{
					OFFSET 0 0 0
					CHANNELS 3 Zrotation Yrotation Xrotation
					JOINT RightShoulder
					{
						OFFSET -3.24434 1.02034 0.34688
CHANNELS 3 Zrotation Xrotation Yrotation
						JOINT RightElbow
						{
OFFSET 0 -5.218590 -0.000000
CHANNELS 3 Zrotation Xrotation Yrotation
							JOINT RightWrist
							{
OFFSET 0 -3.365040 0.000000
CHANNELS 3 Zrotation Xrotation Yrotation
								JOINT rhand
								{
									OFFSET 0 0 0
CHANNELS 3 Zrotation Xrotation Yrotation
									JOINT RFingers
									{
OFFSET 0 -0.620440 0.000000
CHANNELS 3 Zrotation Xrotation Yrotation
										End Site
										{
OFFSET 0 -0.500220 0.000000
										}
									}
								}
								JOINT RThumb
								{
OFFSET 0 0.000000 0.000000
CHANNELS 3 Zrotation Xrotation Yrotation
									End Site
									{
OFFSET 0 -0.507860 0.507860
									}
								}
							}
						}
					}
				}
			}
		}
	}
}
MOTION
Frames: 7
Frame Time: 0.008333333333333333
0.000000 0.000000 0.000000 0.000000 0.000000 0.000000 0.000000 0.000000 0.000000 0.000000 0.000000 0.000000 0.000000 0.000000 0.000000 0.000000 0.000000 0.000000 0.000000 0.000000 0.000000 0.000000 0.000000 0.000000 0.000000 0.000000 0.000000 0.000000 0.000000 0.000000 -0.000000 -0.000000 0.000000 -0.000000 -0.000000 0.000000 0.000000 0.000000 0.000000 0.000000 0.000000 0.000000 0.000000 0.000000 0.000000 0.000000 0.000000 0.000000 0.000000 0.000000 0.000000 0.000000 0.000000 0.000000 0.000000 0.000000 0.000000 90.000000 0.000000 0.000000 -0.000000 0.000000 0.000000 -0.000000 0.000000 0.000000 0.000000 0.000000 0.000000 -0.000000 -0.000000 -0.000000 0.000000 0.000000 -0.000000 0.000000 0.000000 0.000000 -90.000000 0.000000 -0.000000 0.000000 0.000000 -0.000000 0.000000 0.000000 -0.000000 0.000000 0.000000 0.000000 0.000000 -0.000000 0.000000 -0.000000 0.000000 0.000000
3.524753 6.982322 -17.046184 -0.767586 0.140841 3.421965 0.000000 0.000000 0.000000 -7.305470 -0.526668 -13.585509 5.826110 8.264460 30.668653 0.000000 0.000000 0.000000 0.000000 0.000000 0.000000 0.000000 0.000000 0.000000 11.882203 4.762189 -7.092458 -1.219372 -4.524158 13.163860 -0.280414 3.932318 -6.418956 -0.084024 1.234506 -3.404994 -0.191186 0.069415 -1.114659 1.614121 0.088004 -0.441157 1.771015 0.047064 0.165817 -5.296599 -1.183461 -9.942791 2.817834 -0.533579 9.496253 1.823852 -0.333339 4.765076 0.000000 0.000000 0.000000 52.661545 2.368148 -20.210829 8.833861 -13.506078 2.463369 4.640243 -6.882639 10.499202 0.000000 0.000000 0.000000 -3.116444 0.000000 0.000000 -5.031843 2.630366 -4.572316 0.000000 0.000000 0.000000 -55.786299 3.197144 17.077851 -6.966751 -11.119779 -1.581142 -14.978221 1.210449 10.951075 0.000000 0.000000 0.000000 3.116444 0.000000 0.000000 -2.398284 25.965818 0.843036
7.049506 13.964644 -34.092367 -1.535171 0.281683 6.843930 0.000000 0.000000 0.000000 -14.610940 -1.053336 -27.171018 11.652220 16.528920 61.337306 0.000000 0.000000 0.000000 0.000000 0.000000 0.000000 0.000000 0.000000 0.000000 23.764406 9.524378 -14.184916 -2.438743 -9.048317 26.327720 -0.560829 7.864636 -12.837913 -0.168047 2.469011 -6.809988 -0.382371 0.138829 -2.229318 3.228242 0.176008 -0.882315 3.542030 0.094128 0.331633 -10.593198 -2.366923 -19.885581 5.635668 -1.067158 18.992507 3.647705 -0.666678 9.530152 0.000000 0.000000 0.000000 15.323089 4.736295 -40.421657 17.667723 -27.012156 4.926737 9.280486 -13.765279 20.998403 0.000000 0.000000 0.000000 -6.232888 0.000000 0.000000 -10.063687 5.260733 -9.144631 0.000000 0.000000 0.000000 -21.572598 6.394287 34.155702 -13.933501 -22.239557 -3.162283 -29.956441 2.420897 21.902150 0.000000 0.000000 0.000000 6.232888 0.000000 0.000000 -4.796568 51.931637 1.686073
8.061372 15.966428 -38.900946 -1.768386 0.047588 8.003757 0.000000 0.000000 0.000000 -16.733887 -1.343897 -31.832163 13.259498 18.873659 69.929344 0.000000 0.000000 0.000000 0.000000 0.000000 0.000000 0.000000 0.000000 0.000000 27.183688 10.834029 -16.161691 -2.778715 -10.327916 30.045301 -0.618591 9.177643 -14.489212 -0.161755 2.561568 -7.061893 -0.396047 0.294595 -2.602190 3.636042 0.382986 -1.074284 3.974543 0.199695 0.329712 -12.107059 -2.783809 -22.717190 6.415171 -1.324139 21.665539 4.141453 -0.811769 10.885989 0.000000 0.000000 0.000000 4.721575 5.678029 -46.571116 20.118859 -30.785056 5.592221 10.570026 -15.619491 23.584289 0.000000 0.000000 0.000000 -7.125000 0.000000 0.000000 -11.517243 6.432499 -10.370458 0.000000 0.000000 0.000000 -11.751065 7.055286 39.243388 -16.034849 -25.567430 -3.661260 -34.225931 2.629663 25.006062 0.000000 0.000000 0.000000 7.125000 0.000000 0.000000 -5.467022 59.325233 1.916598
8.065396 15.970671 -38.801395 -1.787282 -0.336883 8.256309 0.000000 0.000000 0.000000 -16.778283 -1.539763 -32.914018 13.174731 18.844178 69.667125 0.000000 0.000000 0.000000 0.000000 0.000000 0.000000 0.000000 0.000000 0.000000 27.208751 10.758972 -16.086722 -2.765987 -10.306221 29.974268 -0.587055 9.440125 -14.228349 -0.119241 2.196124 -6.049191 -0.338530 0.484993 -2.677553 3.560023 0.637682 -1.166312 3.870225 0.328727 0.260516 -12.103778 -2.893246 -22.696720 6.377161 -1.470186 21.601986 4.101738 -0.881359 10.874486 0.000000 0.000000 0.000000 4.843434 6.047672 -47.080988 20.010079 -30.654275 5.536628 10.515702 -15.456955 22.996386 0.000000 0.000000 0.000000 -7.125000 0.000000 0.000000 -11.535657 7.019265 -10.254111 0.000000 0.000000 0.000000 -11.712487 6.699115 39.522184 -16.184832 -25.770207 -3.726213 -34.200474 2.436684 24.962716 0.000000 0.000000 0.000000 7.125000 0.000000 0.000000 -5.444496 59.270078 1.901464
8.068971 15.970819 -38.701675 -1.816611 -0.576427 8.445737 0.000000 0.000000 0.000000 -16.792837 -1.823901 -33.895708 13.095592 18.816324 69.422015 0.000000 0.000000 0.000000 0.000000 0.000000 0.000000 0.000000 0.000000 0.000000 27.286205 10.595679 -15.859271 -2.730840 -10.245354 29.775734 -0.567448 9.594233 -14.064004 -0.088038 1.906574 -5.247681 -0.245636 0.627581 -2.718662 3.483667 0.827384 -1.230518 3.743599 0.424495 0.206652 -12.090102 -2.974673 -22.721928 6.359121 -1.580874 21.593235 4.075148 -0.932325 10.887813 0.000000 0.000000 0.000000 4.996256 6.433769 -47.557653 19.926297 -30.553410 5.493880 10.481795 -15.196947 22.480357 0.000000 0.000000 0.000000 -7.125000 0.000000 0.000000 -11.544517 7.532885 -10.144794 0.000000 0.000000 0.000000 -11.652032 6.323591 39.770839 -16.358916 -26.004246 -3.802348 -34.202971 2.237385 24.942313 0.000000 0.000000 0.000000 7.125000 0.000000 0.000000 -5.451364 59.247774 1.900952
8.071946 15.965483 -38.601731 -1.859913 -0.621872 8.550625 0.000000 0.000000 0.000000 -16.767424 -2.226262 -34.743249 13.023990 18.790649 69.199818 0.000000 0.000000 0.000000 0.000000 0.000000 0.000000 0.000000 0.000000 0.000000 27.433826 10.314215 -15.427605 -2.665668 -10.132025 29.406441 -0.563818 9.603200 -14.028925 -0.071985 1.718669 -4.729017 -0.105363 0.706138 -2.713894 3.406860 0.930041 -1.257461 3.587099 0.475714 0.173323 -12.062502 -3.018587 -22.808314 6.367825 -1.644209 21.657882 4.066138 -0.958350 10.934396 0.000000 0.000000 0.000000 5.190547 6.841903 -47.989844 19.875997 -30.492612 5.468337 10.475234 -14.806396 22.060588 0.000000 0.000000 0.000000 -7.125000 0.000000 0.000000 -11.540581 7.948543 -10.044893 0.000000 0.000000 0.000000 -11.562278 5.922150 39.979127 -16.565280 -26.280155 -3.893457 -34.242905 2.029622 24.952635 0.000000 0.000000 0.000000 7.125000 0.000000 0.000000 -5.497596 59.269469 1.920023
